<svg xmlns="http://www.w3.org/2000/svg" xml:space="preserve" width="210mm" height="297mm" style="shape-rendering:geometricPrecision;text-rendering:geometricPrecision;image-rendering:optimizeQuality;fill-rule:evenodd;clip-rule:evenodd" viewBox="0 0 21000 29700"><defs><style>.fil2{fill:#000}.fil0{fill:#005b8a}.fil4,.fil5{fill:#fefefe;fill-rule:nonzero}.fil4{fill:#201e1e}</style></defs><g id="Capa_x0020_1"><g id="_2254263135456"><path d="M14913.06 14505.19c-239 3230.7-3008.49 5923.1-6534.53 5677.89-871.95-60.64-1718.68-321.26-2384.6-672.04-344.36-181.36-664.66-386.94-931.25-595.56-148.08-115.87-282.24-223.56-413.44-339.54l-190.9-196.04c-36.46-36.09-54.45-56.58-89.56-93.2l-276.32-292.72c-54.37-60.91-121.02-154.19-170.22-218.39-869.23-1133.79-1351.42-2667.38-1236.38-4136.06 253.1-3230.62 3020.55-5921.46 6559.84-5675.08 827.79 57.62 1772.13 320.42 2381.1 670.6 478.82 275.38 933.4 539.52 1334.02 945.96 355.57 360.71 356.51 274.81 728.91 798.39 333.14 468.37 619.34 898.29 829.52 1473.22 298.13 815.67 464.2 1700.99 393.81 2652.57M8460.56 7627.3C6944.52 7734.99 5811.7 8205.35 4716.4 9086.95c-322.2 259.35-405.95 395.1-636.41 594.88-165.91 143.86-575.52 718.14-696.65 899.34-670.26 1002.81-1130.71 2523.8-1032.1 3801.44 72.93 944.58 293.18 1791.57 666.19 2541.78 308.93 621.36 446.7 751.29 784.28 1222.9 156 217.96 563.84 614.97 803.47 815.99 1306.91 1096.38 2720.52 1602.27 4525.85 1547.71 1442.61-43.57 2969.44-680.36 3977.85-1639.75 447.15-425.42 748.05-713.51 1121.48-1295.6 206.38-321.74 397.2-670.07 556.21-1062.56 678.31-1674.08 628.9-3709.55-211.5-5332.15-275.88-532.65-536.69-904.83-886.33-1325.22-261.43-314.37-613.5-627.74-939.55-883.94-144.8-113.77-303.08-227.71-467.11-330.76-336.42-211.4-663.34-391.04-1061.64-557.13-807.27-336.67-1785.33-525.82-2759.88-456.58" class="fil0"/><path d="M8560.65 11872.76c1277.45-139.25 2299.94 826.64 2414.68 1949.3 132.39 1295.44-816.29 2302.68-1954.27 2425.37-1283.84 138.41-2302.88-822.43-2419.75-1947.25-128.34-1235.12 754.6-2296.11 1959.34-2427.42m-18.77-111.78c-476.91 54.67-1081.81 311.32-1369 649.15-55.1 64.79-91.67 74.16-147.63 148.64-393.35 523.63-614.97 1031.3-536.64 1762.04 126.41 1179.45 1211.18 2193.27 2558.94 2038.21 1186.95-136.55 2187.05-1193.16 2040.24-2557.64-126.84-1178.97-1204.53-2194.11-2545.91-2040.4" class="fil0"/><path d="M7203.39 16106.75c182.92 206.82 386.67 355.95 736.45 478.66 358.26 125.71 690.61 186.78 1100.6 156.22 599.14-44.65 1447.67-443.82 1643.69-872.36-208.06 118.35-341.76 284.23-717.82 451.97-1556.03 694.04-2590.71-200.78-2762.92-214.49M7002.9 12231.45c122.53-51.43 233.58-151.15 355.22-229.05 819.01-524.42 1844.81-592.92 2710.74-122.91 112.18 60.89 267.02 166.59 377.59 204.77-79.98-156.19-480.79-400.57-711.67-507.93-285.61-132.79-704.22-196.12-1060.38-174.88-351.77 20.98-701.47 120.7-976.39 257.85-250.76 125.08-604.92 379.13-695.11 572.15M7726.72 15150.27c239.94 437.3 1094.79 690.78 1764.03 353.68 159.2-80.19 369.92-236.3 432.18-377.08-276.16 120.64-444.65 387.61-1088.28 389.9-701.01 2.5-917.41-329.07-1107.93-366.5" class="fil0"/><path d="M7836.03 12926.81c215.4-24.8 604.3-496.3 1508.84-186.08 198.55 68.08 292.16 161.41 448.56 219.93-128.8-275.91-899.72-601.59-1547.95-321.15-94.82 41.01-386.94 178.78-409.45 287.3" style="fill:#fefefe"/><path d="M8353.52 8383.51c-1328.78 137.07-2238.95 544.61-3211.08 1312.89-325.68 257.39-836.41 830.86-1065.63 1191.09-294.17 462.34-1335.05 2036.44-213.54 2114.48 334.75 23.26 804.71 22.38 1141.16 5.22 631.05-32.18 480.09-502.33 1059.95-1204.61 350.23-424.2 769-724.78 1284.85-971.32 1714.18-819.25 3745.64-25.71 4592.34 1547.66 358.88 666.86 138.73 664.28 1635.44 634.74 183.14-3.61 330.12-.49 473-88.04 95.95-58.78 210.24-189.6 230.14-337.9 59-439.91-591.87-1534.4-895.84-1925.73-44.71-57.58-80.2-94.28-122.15-150.88-177.33-239.4-475.19-514.48-686.69-726.54-50.41-50.52-99.77-76.05-151.61-122.83-919.21-829.24-2624.27-1427.41-4070.34-1278.23M11884.32 18877.41c347.08-221.33 824.69-598.36 1091.69-891.59 226.04-248.28 428.22-522.85 621.22-793.05 131.39-183.9 300.56-485.18 400.38-715.74 218.39-504.44 454.34-924.61 94.36-1232.99-116.28-99.64-269.42-99.08-446.56-99.35-344.31-.53-808.03-24.85-1138.8 6.39-394.48 37.27-371.21 297.21-528.69 582.79-71.01 128.8-153.01 231.27-228.19 340.68-549.51 799.7-1399.63 1362.49-2423.41 1520.29-1219.07 187.88-2510.79-328.91-3229.98-1218.39-583.2-721.29-514.53-1197.15-1022.62-1234.18-371.3-27.06-765.94 5.25-1141.08 2.32-331.15-2.56-615.97 154.78-585 523.39 35.16 418.93 512.56 1259.59 699.53 1549.8 887.97 1378.22 2426.42 2359.83 4240.16 2526.3 1431.69 131.42 2617.29-241.9 3596.99-866.67" class="fil2"/><path d="M10270.58 14278.02c92.12 253.8 181.34 154.84 73.46 459.59-425.39 1201.57-2126.19 1420.07-2844.76 441.07-132.84-180.96-443.57-709.84-236.11-922.21 129.04-132.05 179.99-191.19 391.52-270.52 162.54-60.97 352.25-88.3 540.81-90.62 932.06-11.52 1107.9 605.85 2075.08 382.69m-2434.55-1351.21c22.51-108.52 314.63-246.29 409.45-287.3 648.23-280.44 1419.15 45.24 1547.95 321.15-156.4-58.52-250.01-151.85-448.56-219.93-904.54-310.22-1293.44 161.28-1508.84 186.08m745.76-644.19c-976.3 129.53-1728.69 1078.07-1558.64 2054.72 297.27 1707.15 2269.4 1852.06 2982.96 1066.01 111.49-122.8 62.56-40.24 219.88-236.92 645.1-806.47-135.21-667 174.23-1329.86 123.33-264.2 202.58-231.8-20.26-648.52-312.96-585.33-1063.68-1002.86-1798.17-905.43" class="fil0"/><ellipse cx="8819.43" cy="14067.23" rx="2962.75" ry="2963.89" style="stroke:#005b8a;stroke-width:141.11;stroke-miterlimit:22.9256;fill:none"/><path d="M3594.66 13973.08H3474.8c-6.56 0-11.71 5.15-11.71 11.71v304.33c0 6.56 5.15 11.71 11.71 11.71h116.11c117.05 0 194.78-60.4 194.78-164.34 0-74.92-39.33-163.41-191.03-163.41m7.49 247.22h-42.61v-166.68h42.61c64.14 0 85.68 43.07 85.68 83.8 0 44.95-25.75 82.88-85.68 82.88" class="fil4"/><path id="_1" d="M4059.59 14220.3h-130.63v-43.08h104.88c6.09 0 11.71-5.15 11.71-11.7v-57.12c0-6.56-5.62-11.71-11.71-11.71h-104.88v-43.07h129.23c6.08 0 11.7-5.16 11.7-11.71v-57.12c0-6.56-5.62-11.71-11.7-11.71h-213.97c-6.56 0-11.71 5.15-11.71 11.71v304.33c0 6.56 5.15 11.71 11.71 11.71h215.37c6.56 0 11.71-5.15 11.71-11.71V14232c0-6.55-5.15-11.7-11.71-11.7" class="fil4"/><path id="_2" d="M4282 14118.7c-51.04-36.52-67.89-49.17-61.81-65.08 2.34-6.09 12.64-9.84 21.54-9.84 22.94 0 42.61 7.03 58.06 12.64 8.89 3.28 12.17-1.4 13.58-7.02.93-5.62 9.36-48.69 10.3-54.31 1.4-6.56-2.34-11.71-9.37-13.58-15.92-5.62-48.69-14.05-81.93-14.05-37.46 0-107.69 5.62-116.12 75.39-7.02 56.18 28.09 93.64 67.89 120.79 37.93 26.22 51.04 32.78 51.04 46.36-.47 13.58-17.8 19.66-39.8 18.73-17.33-1.41-38.4-11.24-56.19-19.2-5.15-2.34-9.83 1.4-10.77 4.21-.93 3.28-12.64 46.36-14.04 52.91-1.88 7.02-.47 10.77 3.74 13.58 11.71 7.49 42.61 26.22 92.71 26.22 78.66 0 114.24-32.78 124.07-71.17 10.3-40.27-1.87-80.53-52.9-116.58" class="fil4"/><path id="_3" d="M4517.04 13973.08h-119.86c-6.56 0-11.71 5.15-11.71 11.71v304.33c0 6.56 5.15 11.71 11.71 11.71h116.11c117.05 0 194.78-60.4 194.78-164.34 0-74.92-39.33-163.41-191.03-163.41m7.49 247.22h-42.61v-166.68h42.61c64.14 0 85.68 43.07 85.68 83.8 0 44.95-25.75 82.88-85.68 82.88" class="fil4"/><path id="_4" d="M4981.97 14220.3h-130.63v-43.08h104.88c6.09 0 11.71-5.15 11.71-11.7v-57.12c0-6.56-5.62-11.71-11.71-11.71h-104.88v-43.07h129.23c6.08 0 11.7-5.16 11.7-11.71v-57.12c0-6.56-5.62-11.71-11.7-11.71H4766.6c-6.56 0-11.71 5.15-11.71 11.71v304.33c0 6.56 5.15 11.71 11.71 11.71h215.37c6.56 0 11.71-5.15 11.71-11.71V14232c0-6.55-5.15-11.7-11.71-11.7" class="fil4"/><path d="M13064.13 14218.53h-41.08v-240.32c0-6.69-5.26-11.95-11.95-11.95h-127.57c-6.69 0-11.94 5.26-11.94 11.95v58.29c0 6.69 5.25 11.94 11.94 11.94h41.09v170.09h-41.09c-6.69 0-11.94 5.26-11.94 11.95v58.29c0 6.68 5.25 11.94 11.94 11.94h180.6c6.69 0 11.95-5.26 11.95-11.94v-58.29c0-6.69-5.26-11.95-11.95-11.95" class="fil4"/><path id="_1_0" d="M13215.6 14191.3c-27.72 43.95-56.86 89.82-59.73 94.6-4.77 7.17-2.39 14.81 9.08 14.81h78.84c8.12 0 11.46-4.3 16.24-11.94 4.78-7.65 65.46-98.43 82.66-129.01 10.03-16.24 25.8-53.03 25.8-82.65 0-64.5-58.77-116.58-129.48-116.58-70.24 0-129.48 52.08-129.48 116.58 0 56.85 46.34 104.16 106.07 114.19m23.41-151.46c23.41 0 42.52 16.72 42.52 37.27 0 20.54-19.11 37.27-42.52 37.27s-42.05-16.73-42.05-37.27c0-20.55 18.64-37.27 42.05-37.27" class="fil4"/><path id="_2_1" d="M13632.21 13978.21c0-6.69-5.25-11.95-11.94-11.95h-202.1c-6.22 0-11.47 5.26-11.47 11.95v58.29c0 6.69 5.25 11.94 11.47 11.94h111.8s-96.04 226.95-100.82 238.41c-2.86 7.17-.95 13.86 9.08 13.86h74.54c6.69 0 10.51-3.82 13.85-11.94 3.35-8.13 100.34-236.98 103.68-245.11.96-2.38 1.91-6.21 1.91-9.55z" class="fil4"/><path id="_3_2" d="M13895.94 13978.21c0-6.69-5.25-11.95-11.94-11.95h-202.1c-6.22 0-11.47 5.26-11.47 11.95v58.29c0 6.69 5.25 11.94 11.47 11.94h111.8s-96.04 226.95-100.82 238.41c-2.86 7.17-.95 13.86 9.08 13.86h74.54c6.69 0 10.51-3.82 13.85-11.94 3.35-8.13 100.34-236.98 103.68-245.11.96-2.38 1.91-6.21 1.91-9.55z" class="fil4"/><path d="M5046.08 11362.26c-199.06 101.2-266.67 133.68-307.75 88.46-15.69-17.33-11.07-55.93 3.28-83.99 36.99-72.33 91.15-122.85 134.03-162.38 24.82-22.69 15.13-40.68-.56-54.3-16.47-12.14-140.63-109.14-157.08-121.28-18.7-15.15-41.21-11.77-58.51 7.32-43.64 41.01-123.42 130.56-177.02 235.39-60.39 118.09-155.65 348.72 53.84 489.36 168.34 114.01 344.73 64.54 495.74-16.54 144.98-76.71 187.09-107.32 230.5-85.12 42.66 23.68 34.2 88.25-4.27 156.1-32.42 52.33-97.83 102.68-151.96 145.76-15.8 12.42-11.37 33.31-3.9 40.85 8.98 8.31 127.85 115.65 146.54 130.8 19.45 17.38 33.68 19.08 49.46 10.38 42.83-24.65 152.54-91.46 233.31-249.42 126.81-248.02 79.37-413.8-27.54-507.58-112.16-98.32-260.54-125.78-458.11-23.81m310.28-1103.63c-236.27 242.06-239.37 635.24 1.3 870.15 240.67 234.92 633.66 222.31 869.93-19.74 235.1-240.86 239.36-635.23-1.31-870.15-240.67-234.91-634.82-221.12-869.92 19.74m658.24 642.51c-113.51 116.28-306.04 113.71-428.79-6.1-122.74-119.81-128.76-311.05-15.25-427.33 113.49-116.28 303.66-113.7 426.41 6.11 122.74 119.81 131.12 311.04 17.63 427.32m1527.66-688.52c20.57-10.77 28.14-35.62 17.22-56.47l-507.09-968.28c-10.93-20.86-35.67-28.78-56.23-18.01l-229.14 120c-20.56 10.77-28.14 35.61-17.22 56.47l258.23 493.08s-514.23-284.98-566.91-310.55c-52.68-25.55-75.09-29-110.34-10.54l-158.63 83.08-10.28 5.38c-19.1 10-28.15 35.61-17.22 56.47l507.09 968.29c10.93 20.85 35.67 28.78 56.23 18.01l230.6-120.77c19.1-10 28.14-35.62 17.23-56.48l-262.92-502.02 591.93 329.72c28.64 15.37 51.82 20.31 94.42-2 11.74-6.15 163.03-85.38 163.03-85.38m244.11-1279.58-249.73 67.4c-22.41 6.04-35.2 28.65-29.07 51.39l284.8 1055.27c6.13 22.73 28.56 35.84 50.97 29.79l249.72-67.4c22.42-6.04 35.2-28.66 29.07-51.39l-284.79-1055.27c-6.14-22.74-28.56-35.84-50.97-29.79m1483.19 1006.01c-13.5-20.02-138.8-235.46-220.02-370.7 108.6-70.25 163.52-192 161.76-338.28-3.01-250.54-165.77-410.03-436.01-406.78l-467.54 5.61c-23.21.28-41.23 18.99-40.95 42.54l13.12 1092.95c.29 23.54 18.75 41.82 41.96 41.54l258.64-3.11c23.21-.28 41.22-19 40.95-42.53l-3.82-317.8 89.52-1.08c76.26 136.99 169.48 304.04 176.25 315.73 11.84 20.04 33.66 41.64 63.51 41.28 0 0 250.35-3 293.45-3.52 39.79-.48 44.42-29.13 29.18-55.85m-365-706.99c.62 52.13-41.57 128.32-129.44 129.38-16.58.2-86.22 1.03-160.82 1.93l-3.12-258.95c67.98-.82 132.63-1.59 157.51-1.89 94.51-1.14 135.27 79.1 135.87 129.53m1631.02 1094.72c-2.65-39.8-34.16-1113.8-37.86-1145.09-3.69-31.3-8.94-47.18-37.3-56.48l-264.68-86.85c-28.35-9.3-42 .38-61.95 23.92-21.5 23.03-682.13 866.38-708.89 900.07-25.72 30.5-16.77 56.44 10.01 65.23 20.49 6.72 255.22 83.74 255.22 83.74 47.26 15.51 60.38 2.11 89.76-34.26 5.78-6.96 27.3-35.29 59.82-81.25l340.3 111.65c-1.03 56.3-.49 91.87.05 100.9 3.69 47.22 4.75 65.27 52.02 80.78 0 0 234.74 77.02 256.8 84.26 26.78 8.79 47.77-7.33 46.7-46.62m-519.05-577.36c56.67-76.98 114.91-158.74 170.53-237.84-.49 97.19-2 197.56-3.53 292.64zm2337.77 633.4-146.84-129.31c-21.15-18.63-37.77-19.82-69.37-14.04-30.36 6.87-589.56 135.1-589.56 135.1s57.72-569.83 60.71-600.81c1.74-32.07-1.56-48.42-22.71-67.04l-146.83-129.31c-17.43-15.34-44.45-12.25-58.9 4.16l-722.36 820.31c-15.56 17.67-14.09 43.6 3.32 58.94l194.13 170.95c17.41 15.34 43.33 13.51 58.89-4.16l343.4-389.96s-35.73 288.95-41.24 337.86c-8.59 57.42 8.43 65.69 18.38 74.46 9.95 8.76 69.69 61.36 80.89 71.23 9.95 8.76 20.31 24.6 76.19 8.82 46.57-12.75 328.68-84.74 328.68-84.74l-343.39 389.96c-15.56 17.67-12.86 44.7 3.32 58.95l195.37 172.04c16.17 14.24 43.33 13.51 58.88-4.16l722.36-820.31c14.46-16.4 12.86-44.7-3.32-58.94m48.08 1906.27c21.91-33.33 645.22-908.51 661.16-935.69 15.96-27.17 21.36-43.01 4.37-67.55l-158.56-229.03c-16.99-24.54-33.71-25.06-63.83-18.33-31.05 5.37-1066.85 278.81-1108.52 289.51-38.92 8.79-47.45 34.87-31.42 58.04 12.28 17.73 152.91 220.85 152.91 220.85 28.31 40.9 46.86 38.14 92.24 26.88 8.81-2.05 43.07-11.65 96.74-28.66l203.86 294.47c-34.8 44.26-55.85 72.94-60.87 80.46-25.57 39.88-35.62 54.91-7.31 95.81 0 0 140.63 203.12 153.85 222.2 16.04 23.18 42.5 23.01 65.38-8.96m-65.2-773.63c91.65-27.15 187.45-57.17 279.54-86.64-59.06 77.18-120.88 156.28-179.49 231.14zM5014.75 17446.97c7.87-21.59 103.73-235.93 162.56-372.32 113.49 46.21 237.16 22.67 348.17-58.24 190.16-138.36 222.59-351.59 71.05-559.63-1.84-2.38-261.97-359.82-261.97-359.82-13.18-17.89-37.39-21.81-55.29-8.64l-829.55 604.06c-17.89 12.91-21.82 37.13-8.9 55.02l145.22 199.11c12.91 17.88 37.12 21.8 55.01 8.63l241.19-175.52c17.66 24.19 35.32 48.39 50.34 68.91-63.04 133.5-139.47 296.76-144.73 308.34-8.67 20.02-13.38 48.71 3.48 71.85 0 0 140.22 192.54 164.46 225.94 22.4 30.51 46.87 18.64 58.96-7.69m339.94-667.55c-39.45 28.74-121.04 37.23-170.32-30.36-9.22-12.63-48.24-66.29-90.13-123.89l196.47-143.11c38.21 52.35 74.32 102.32 88.29 121.53 52.97 72.58 14.09 147.9-24.31 175.83" class="fil5"/><path id="_1_3" d="m5923.42 17972.56-333.62-287.44 94.76-110.24 267.96 230.99c15.56 13.4 41.34 12.54 55.78-4.07l125.73-145.84c14.44-16.88 11.23-42.41-4.34-55.8L5862 17369.44l94.76-109.98 330.19 284.28c15.31 13.64 41.1 12.79 55.54-4.08l125.73-145.85c14.44-16.61 11.48-42.14-4.08-55.52l-546.46-471.18c-16.61-14.44-41.09-12.54-55.52 4.08l-670.15 777.23c-14.44 16.61-12.53 41.35 4.08 55.79l550.15 474.05c16.62 14.44 41.09 12.55 55.52-4.07l125.74-145.85c14.44-16.87 12.81-41.35-4.08-55.78" class="fil5"/><path id="_2_4" d="M6984.25 17700.88c-2.62-1.86-322.39-199.42-337.08-208.46-17.58-10.88-43.67-4.7-54.29 12.86l-539.6 873.02c-11.69 18.89-4.71 43.67 12.86 54.29l210.91 130.38c17.58 10.89 42.61 6.03 54.29-12.86l110.47-178.64c50.89 31.6 91.29 56.56 92.6 57.35 318.46 196.78 545.43 84.58 663.34-106.13 123.47-200.16 65.88-449.21-213.5-621.81m-324.56 486.22c-9.43-5.85-38.81-24.17-75.28-46.48l164.37-266c32.27 19.93 60.61 37.19 72.67 44.62 140.87 87.36 115.58 188.57 89.82 230.01-25.76 41.71-105.2 128.13-251.58 37.85" class="fil5"/><path id="_3_5" d="m8346.97 18151.35-240.98-50.78c-21.81-4.64-42.19 8.89-46.82 30.44 0 0-100.18 474.34-124.47 588.66-31.94 151.36-103.79 186.09-210.48 163.71-108.01-22.93-159.94-83.86-127.74-235.23 24.03-114.31 124.2-588.65 124.2-588.65 4.65-21.55-8.62-42.19-28.85-46.54l-242.56-51.32c-21.55-4.38-42.18 8.9-46.82 30.45l-113.55 537.67c-83.81 397.07 104.15 569.32 377.45 626.92 273.57 57.86 513.44-23.76 597.51-420.85l113.55-537.67c4.63-21.55-8.9-42.18-30.44-46.81" class="fil5"/><path id="_4_6" d="m9309.29 19007.22-440.3 6.29-2.17-145.02 353.45-5.35c20.53-.16 39.35-17.93 38.91-40.04l-2.79-192.65c-.17-22.11-19.52-39.06-40.05-38.91l-353.45 5.35-2.17-145.28 435.56-6.5c20.53-.16 39.35-17.94 38.92-40.04l-2.8-192.66c-.17-22.11-19.51-39.06-40.04-38.9l-721.38 10.8c-22.11.17-39.35 17.93-38.92 40.04l15 1026.15c.17 22.11 17.93 39.08 40.04 38.91l726.12-10.58c22.11-.43 39.34-17.94 38.91-40.04l-2.8-192.65c-.17-22.11-17.93-39.35-40.04-38.92" class="fil5"/><path id="_5" d="M10072.68 18446.1c-201.07-65.83-268.28-89.53-264.55-146.91 1.22-21.86 30.61-44.34 59.28-53.41 73.87-23.17 144.16-20.54 199.44-17.87 32.11 1.46 37.83-16.98 36.71-36.46-2.71-18.93-19.06-166.01-21.76-185.21-1.94-22.36-19.36-35.19-43.83-34.05-56.86-2.15-170.8 3.81-277.8 37.38-120.41 37.84-340.9 126.86-297.63 359.9 34.15 187.8 185.03 273.02 340.49 320.07 148.63 46.02 197.35 53.99 210.94 97.63 12.27 44.17-37.32 81.21-109.11 100.43-57.06 13.12-134.74 2.63-200.05-5.02-18.97-2.3-30.22 14.59-30.44 24.59.3 11.32 6.15 161.85 8.34 184.22.88 24.46 9.35 35.23 25.68 39.9 45.06 12.46 163.61 41.49 324.76-9.13 253.17-79.4 334.49-220.79 327.39-354.21-7.64-139.99-87.31-257.35-287.86-321.85" class="fil5"/><path id="_6" d="m11032.53 17465.41-775.13 412.44c-19.74 10.27-26.06 35.28-16.32 53.17l90.28 170.3c10.52 19.48 33.95 26.58 53.43 16.31l243.99-129.76 372.96 701.18c10.26 19.74 33.95 26.84 53.42 16.32l217.42-115.55c19.47-10.26 26.84-33.95 16.31-53.43l-372.96-701.17 243.99-129.77c19.74-10.53 26.85-33.94 16.32-53.42l-90.29-170.3c-9.73-17.89-33.94-26.58-53.42-16.32" class="fil5"/><path id="_7" d="M11571.07 17100.88c-250.93 202.15-300.86 570.49-102.95 816.45 197.9 246.22 568.73 276.12 819.66 74.24 249.62-200.83 300.85-570.5 102.95-816.46-198.18-245.95-570.04-275.06-819.66-74.23m541.38 672.98c-120.62 96.97-301.09 74.08-402.04-51.52-100.94-125.32-83.58-305.48 36.78-402.45 120.62-96.96 298.99-74.33 399.93 51.27 100.95 125.34 85.96 305.74-34.67 402.7" class="fil5"/><path id="_8" d="M12717.71 16495.85c-201.38 64.92-269.37 85.16-300.48 36.86-11.77-18.75-1.08-54.23 16.65-78.1 46.08-62.18 104.68-101.4 150.87-132 26.93-17.52 20.69-35.71 8.39-51.03-13.37-13.74-113.18-123.14-126.54-136.88-14.93-16.92-36.5-17.27-55.52-1.83-47.26 31.9-136.01 103.63-202.73 193.62-75.19 101.53-201.09 303.13-28.88 466.02 138.13 131.94 310.1 111.9 463.52 58.87 147.35-50.16 191.39-72.6 228.13-45.32 35.93 28.58 17.51 87.72-29.06 145.42-38.62 44.05-107.75 81.38-165 113.78-16.63 9.14-15.92 29.4-10.17 37.59 7.07 8.98 100.25 127.3 115.18 144.21 15.19 19.28 28.07 23.02 44.14 17.3 44.03-16.65 156.62-62.74 257.23-198.64 158.07-213.04 140.88-375.25 56.57-479.06-88.48-108.83-221.98-156.79-422.3-90.81" class="fil5"/></g></g></svg>